
<svg
   version="1.1"
   width="49.999996"
   height="49.000004"
   xmlns="http://www.w3.org/2000/svg"
   xmlns:svg="http://www.w3.org/2000/svg">

  <path
     d="m 26.001691,0.27565744 c 0.338193,0.26797142 0.619129,0.57844492 0.885256,0.91476396 0.124227,0.1546262 0.253162,0.3047021 0.383078,0.4546893 0.192036,0.2222992 0.379972,0.4470828 0.564268,0.6756867 0.375531,0.4647063 0.755781,0.9250458 1.151392,1.3733482 0.146058,0.1660674 0.283519,0.3359476 0.418015,0.5113812 0.299938,0.3710112 0.668381,0.5783119 1.14025,0.6647234 0.470213,0.040659 0.841849,-0.036776 1.277901,-0.2044564 0.05937,-0.02185 0.118745,-0.0437 0.179916,-0.066212 0.129178,-0.047547 0.25808,-0.09574 0.386808,-0.1444563 0.211894,-0.080166 0.424388,-0.1587144 0.636958,-0.2371209 0.534293,-0.1973868 1.067728,-0.3969931 1.601123,-0.5967195 0.192116,-0.071922 0.384302,-0.1436593 0.576532,-0.2152866 0.10696,-0.039922 0.213834,-0.080062 0.320707,-0.1202074 0.06516,-0.024293 0.130324,-0.048574 0.195493,-0.072842 0.05649,-0.021148 0.112985,-0.042297 0.171189,-0.064086 0.533279,-0.1801757 1.040224,-0.1308459 1.55111,0.096507 0.148317,0.085209 0.274154,0.1804972 0.399868,0.2954327 0.04069,0.037036 0.04069,0.037036 0.0822,0.07482 0.469651,0.4813934 0.537934,1.1635068 0.636041,1.7926644 0.02437,0.1562504 0.04966,0.3123324 0.07518,0.4684045 0.05396,0.3311667 0.106712,0.662516 0.159391,0.9938831 0.06131,0.3846863 0.123124,0.7692864 0.185827,1.153755 0.02475,0.1530405 0.04877,0.30618 0.07274,0.4593391 0.01531,0.09463 0.03065,0.1892537 0.04603,0.2838729 0.0096,0.062943 0.0096,0.062943 0.01929,0.1271576 0.09216,0.5550834 0.304522,1.0640502 0.775747,1.4041256 0.563766,0.332748 1.239747,0.39937 1.877508,0.497196 0.0939,0.01477 0.187788,0.02959 0.281671,0.04446 0.24554,0.03878 0.491159,0.07705 0.736806,0.115172 0.39302,0.06105 0.785935,0.122741 1.17881,0.184691 0.135978,0.02135 0.272002,0.04239 0.408035,0.0634 1.651701,0.257303 1.651701,0.257303 2.138629,0.852097 0.29694,0.412641 0.41699,0.851658 0.358086,1.355798 -0.08053,0.400642 -0.237351,0.778238 -0.384835,1.158649 -0.01267,0.03277 -0.02534,0.06554 -0.03839,0.0993 -0.186293,0.48184 -0.374472,0.962955 -0.56332,1.443829 -0.158519,0.403677 -0.316477,0.807563 -0.473739,1.211717 -0.04214,0.108212 -0.08443,0.21637 -0.12672,0.324527 -0.02558,0.06571 -0.05115,0.131412 -0.07671,0.197123 -0.02219,0.05688 -0.04438,0.113766 -0.06724,0.172372 -0.176224,0.480152 -0.18235,1.077248 0.02546,1.549062 0.293903,0.508257 0.80429,0.858115 1.260353,1.217626 0.137883,0.108776 0.274947,0.218523 0.411962,0.328358 0.06558,0.05256 0.131207,0.10506 0.196884,0.157502 0.245314,0.195923 0.488932,0.393806 0.732291,0.592079 0.257602,0.20979 0.517283,0.416276 0.780994,0.618562 0.11267,0.08694 0.225111,0.174153 0.337389,0.261581 0.02916,0.02265 0.05831,0.0453 0.08835,0.06864 0.525139,0.411267 0.89485,0.78292 1.011289,1.457761 0.05409,0.486969 -0.06896,0.920581 -0.357109,1.318676 -0.271453,0.319762 -0.614029,0.573576 -0.945003,0.83052 -0.188553,0.148102 -0.374034,0.299726 -0.559777,0.451227 -0.263831,0.214939 -0.529476,0.426907 -0.799737,0.633949 -0.252941,0.193803 -0.498897,0.394083 -0.74192,0.599809 -0.17021,0.143296 -0.344283,0.27996 -0.522046,0.414046 -0.462267,0.349309 -0.905625,0.723998 -1.022784,1.315754 -0.06568,0.59992 0.06446,1.057371 0.285478,1.610358 0.07467,0.188098 0.14688,0.377035 0.218849,0.566149 0.228876,0.600407 0.460289,1.199857 0.693503,1.798641 0.06444,0.165576 0.128639,0.33124 0.192813,0.496915 0.0306,0.07879 0.06131,0.157545 0.09215,0.236249 0.263934,0.673641 0.491401,1.275392 0.241643,1.994316 -0.191343,0.424106 -0.548421,0.782492 -0.97468,0.97862 -0.463083,0.161734 -0.957938,0.219654 -1.441241,0.294097 -0.149963,0.02313 -0.299855,0.04667 -0.449735,0.07031 -0.425774,0.06711 -0.851661,0.133505 -1.277601,0.199587 -0.261595,0.04062 -0.523108,0.08172 -0.784578,0.123109 -0.09894,0.01556 -0.197917,0.03093 -0.296922,0.0461 -1.109864,0.159164 -1.109864,0.159164 -1.997872,0.793195 -0.02622,0.02812 -0.05245,0.05624 -0.07947,0.08521 -0.160859,0.210481 -0.211345,0.451247 -0.266709,0.704454 -0.0086,0.0389 -0.01724,0.0778 -0.02612,0.117884 -0.08796,0.40609 -0.156603,0.814834 -0.222182,1.224917 -0.02161,0.134917 -0.04362,0.269766 -0.06572,0.404605 -0.06267,0.382618 -0.124761,0.765325 -0.186353,1.148113 -0.03801,0.236071 -0.07656,0.472054 -0.115421,0.707991 -0.01455,0.08899 -0.0289,0.178006 -0.04303,0.267058 -0.129685,0.816761 -0.274297,1.449257 -0.969352,1.983929 -0.41998,0.265158 -0.884218,0.31713 -1.374549,0.249271 -0.142192,-0.03521 -0.278075,-0.08336 -0.415489,-0.133483 -0.0418,-0.01482 -0.0836,-0.02965 -0.126665,-0.04492 -0.152815,-0.05463 -0.305193,-0.110329 -0.457518,-0.166268 -0.03071,-0.01127 -0.06141,-0.02254 -0.09305,-0.03415 -0.516688,-0.189774 -1.03248,-0.381876 -1.548134,-0.574359 -0.311345,-0.116216 -0.622734,-0.232317 -0.934186,-0.348256 -0.107475,-0.04004 -0.214908,-0.0802 -0.322338,-0.120356 -1.081252,-0.417385 -1.081252,-0.417385 -2.200611,-0.252322 -0.405924,0.193595 -0.665381,0.45197 -0.934312,0.802726 -0.128809,0.1647 -0.26493,0.323604 -0.399625,0.483637 -0.06042,0.07217 -0.120818,0.144362 -0.181191,0.216574 -0.03041,0.03635 -0.06082,0.07271 -0.09216,0.110161 -0.09121,0.109125 -0.182297,0.218348 -0.273348,0.327602 -0.290939,0.348921 -0.583313,0.696366 -0.880411,1.040217 -0.13205,0.153231 -0.261153,0.308306 -0.387922,0.465797 -0.03157,0.03885 -0.06314,0.07769 -0.09567,0.117711 -0.05583,0.06881 -0.111577,0.137688 -0.166694,0.207053 -0.361884,0.453622 -0.728112,0.855457 -1.33711,0.955444 -0.609857,0.04759 -1.107679,-0.03938 -1.584245,-0.431994 -0.374344,-0.356265 -0.68623,-0.773625 -1.004895,-1.177667 -0.190449,-0.240272 -0.390049,-0.471794 -0.592481,-0.702301 -0.227589,-0.259251 -0.44797,-0.523869 -0.667115,-0.790081 -0.07493,-0.09031 -0.149909,-0.180576 -0.224927,-0.270813 -0.03679,-0.0443 -0.07358,-0.08861 -0.111486,-0.134252 -0.0782,-0.09414 -0.156433,-0.188257 -0.234689,-0.282354 -0.03937,-0.04735 -0.07874,-0.0947 -0.119297,-0.143485 -0.05306,-0.06379 -0.05306,-0.06379 -0.107191,-0.128867 -0.0686,-0.08296 -0.135573,-0.167254 -0.200911,-0.252733 -0.310463,-0.358975 -0.793246,-0.512601 -1.255057,-0.57394 -0.507915,-0.02451 -1.028457,0.221133 -1.49326,0.39391 -0.06124,0.02255 -0.122482,0.0451 -0.185579,0.06833 -0.162384,0.0598 -0.324657,0.119894 -0.486908,0.180047 -0.159885,0.05921 -0.319884,0.118123 -0.479869,0.177072 -0.520719,0.192017 -1.04113,0.384806 -1.560669,0.579902 -0.0502,0.01883 -0.0502,0.01883 -0.101421,0.03805 -0.160447,0.0602 -0.320846,0.120502 -0.481168,0.181019 -0.05686,0.02136 -0.113728,0.04272 -0.172315,0.06473 -0.04994,0.01883 -0.09987,0.03766 -0.151325,0.05706 -0.473639,0.16689 -1.020023,0.167047 -1.47712,-0.04542 -0.500266,-0.269565 -0.845725,-0.631624 -1.018924,-1.165453 -0.05611,-0.19681 -0.08989,-0.395338 -0.1219,-0.597118 -0.0075,-0.0453 -0.015,-0.0906 -0.02273,-0.137269 -0.01611,-0.09758 -0.03206,-0.195179 -0.04786,-0.292806 -0.0251,-0.154958 -0.05069,-0.309829 -0.07642,-0.464687 -0.073,-0.440041 -0.145063,-0.880232 -0.216938,-1.320453 -0.04412,-0.27004 -0.08877,-0.539992 -0.133721,-0.809899 -0.01692,-0.102317 -0.03364,-0.204666 -0.05015,-0.307049 -0.129585,-0.950413 -0.129585,-0.950413 -0.614506,-1.756187 0,-0.0325 0,-0.06499 0,-0.09848 -0.0268,-0.01219 -0.05361,-0.02437 -0.08122,-0.03693 -0.118715,-0.06155 -0.118715,-0.06155 -0.254044,-0.157627 C 9.4938744,38.330824 8.7379325,38.293631 8.1393609,38.201028 7.9917054,38.178154 7.8441351,38.154799 7.696577,38.131323 7.2776935,38.064761 6.8586794,37.999018 6.4396058,37.933628 6.1816007,37.893337 5.9236919,37.852487 5.6658315,37.811307 5.5683454,37.795857 5.4708237,37.780624 5.3732659,37.765619 4.57101,37.642203 3.9678561,37.518609 3.4212117,36.878336 3.1062762,36.433408 3.0640043,35.919778 3.1529403,35.398288 c 0.065428,-0.229136 0.1499169,-0.44913 0.2374221,-0.670878 0.024635,-0.06405 0.049202,-0.12813 0.073706,-0.192231 0.065262,-0.170138 0.1314649,-0.339907 0.1978965,-0.509605 0.067988,-0.174074 0.1351752,-0.348448 0.2024604,-0.522786 0.1083821,-0.280468 0.2172273,-0.560757 0.3264553,-0.840906 0.1463711,-0.375442 0.2924118,-0.751006 0.4376128,-1.126888 0.03559,-0.09205 0.07131,-0.184047 0.1070327,-0.276044 0.021295,-0.05515 0.04259,-0.110306 0.06453,-0.167131 0.018637,-0.04814 0.037274,-0.09627 0.056476,-0.145865 0.152307,-0.421591 0.1758879,-0.959194 0.014595,-1.38246 -0.036998,-0.07514 -0.076477,-0.149162 -0.118711,-0.221575 -0.027448,-0.04779 -0.027448,-0.04779 -0.055451,-0.09655 C 4.3614262,28.745476 3.7869104,28.379225 3.3119702,28.016163 3.1130453,27.863691 2.919483,27.706225 2.7280798,27.544704 2.5073658,27.358486 2.2827668,27.178729 2.0533012,27.003078 1.7916308,26.802744 1.5366051,26.596243 1.2849865,26.383794 1.1205011,26.245186 0.95285172,26.112062 0.78184351,25.981373 0.39163585,25.674233 0.16403703,25.361335 0.0164697,24.888888 c -0.05490993,-0.55444 0.01757951,-1.064523 0.36862902,-1.520247 0.2142537,-0.241881 0.45952547,-0.431749 0.71851418,-0.624717 0.085714,-0.06834 0.1710914,-0.137081 0.256166,-0.206187 0.2243375,-0.181265 0.4494245,-0.361591 0.6747785,-0.541627 0.3206065,-0.256139 0.6391938,-0.514602 0.957181,-0.773887 0.1932094,-0.157004 0.3881935,-0.31103 0.5865384,-0.461686 0.9000439,-0.651128 0.9000439,-0.651128 1.374073,-1.611043 C 4.9913448,18.739582 4.9807738,18.378106 4.829929,17.991229 4.81678,17.956059 4.803631,17.920889 4.790083,17.884654 4.7448705,17.764385 4.6986896,17.644503 4.6524482,17.524615 4.6172102,17.432104 4.5819982,17.339585 4.5468066,17.247058 4.4494176,16.991825 4.3510692,16.736962 4.2523949,16.48221 4.1890439,16.318615 4.1258632,16.154958 4.0627126,15.991288 3.8878525,15.538449 3.7128109,15.085714 3.533089,14.634722 3.509877,14.576261 3.486666,14.517799 3.462751,14.457566 3.4226112,14.356867 3.3821332,14.256298 3.3412086,14.155906 3.1205454,13.602427 2.9989319,13.03613 3.2372877,12.465331 3.5056307,11.94138 3.866414,11.613619 4.428602,11.419093 c 0.3696909,-0.104881 0.751089,-0.155375 1.1305799,-0.214159 0.092681,-0.01477 0.1853537,-0.02959 0.2780185,-0.04446 0.2428627,-0.03885 0.4858199,-0.07709 0.7288074,-0.115172 0.3880734,-0.06094 0.7759858,-0.122868 1.1639151,-0.184691 0.1341532,-0.0213 0.2683412,-0.04237 0.4025386,-0.0634 0.379025,-0.05966 0.7576698,-0.120922 1.1346343,-0.192266 0.056945,-0.01075 0.1138895,-0.02149 0.1725599,-0.03256 0.5589973,-0.137594 0.9125973,-0.413845 1.2104333,-0.8873088 0.161176,-0.3285349 0.197481,-0.7004816 0.256556,-1.0572874 0.01448,-0.084197 0.02902,-0.1683857 0.0436,-0.2525648 0.08441,-0.490527 0.164339,-0.981762 0.243899,-1.4730709 0.02194,-0.1354381 0.04396,-0.270862 0.06607,-0.4062725 0.0082,-0.050434 0.0082,-0.050434 0.01664,-0.1018859 0.0111,-0.067956 0.0222,-0.1359118 0.03331,-0.2038667 0.03286,-0.2013383 0.06511,-0.4027599 0.0969,-0.6042641 0.02506,-0.1579526 0.05087,-0.3157875 0.07653,-0.4736465 0.01319,-0.08537 0.01319,-0.08537 0.02664,-0.1724642 0.104837,-0.6355026 0.323996,-1.1649326 0.839883,-1.5803205 0.410839,-0.2669075 0.866626,-0.3497245 1.349362,-0.311012 0.46378,0.1104845 0.91194,0.2882862 1.357475,0.4549573 0.114659,0.042889 0.229411,0.085528 0.344186,0.1281136 0.244054,0.090602 0.487991,0.1815112 0.731915,0.2724527 0.282403,0.1052633 0.564856,0.2103915 0.847412,0.315255 0.111273,0.041362 0.222466,0.082927 0.333654,0.1245085 0.370259,0.1379272 0.742117,0.2707413 1.116776,0.3966464 0.0369,0.012654 0.0738,0.025309 0.111814,0.038346 0.528111,0.1746396 1.013816,0.1264586 1.514642,-0.1075163 0.391247,-0.2248842 0.658698,-0.5919599 0.939731,-0.9334209 0.0375,-0.044811 0.075,-0.089622 0.113634,-0.1357913 0.07108,-0.085117 0.141882,-0.1704585 0.212431,-0.2560031 0.157073,-0.1901209 0.31537,-0.3792335 0.473672,-0.5683616 0.195329,-0.2334083 0.390283,-0.4670896 0.584183,-0.7016525 0.185286,-0.223576 0.374357,-0.4437853 0.564366,-0.6634611 0.140461,-0.1629131 0.276607,-0.3283389 0.410315,-0.49672735 0.710027,-0.87218462 1.598064,-1.19756006 2.646006,-0.64010401 z M 33.093114,16.047451 c -0.06756,0.08134 -0.133944,0.163618 -0.199935,0.246194 -0.05966,0.05343 -0.120448,0.105647 -0.182004,0.156945 -0.216289,0.184115 -0.418795,0.379058 -0.620339,0.578614 -0.03847,0.03789 -0.07693,0.07577 -0.116569,0.11481 -0.127921,0.126049 -0.255663,0.252273 -0.383407,0.378497 -0.09206,0.09078 -0.18413,0.181553 -0.276211,0.272314 -0.19781,0.195003 -0.395531,0.390093 -0.593193,0.585242 -0.286136,0.282492 -0.572436,0.564824 -0.85878,0.847112 -0.465124,0.45854 -0.930154,0.917173 -1.395107,1.37588 -0.04168,0.04112 -0.04168,0.04112 -0.0842,0.08307 -0.197217,0.194569 -0.394431,0.389142 -0.591644,0.583715 -0.225368,0.22235 -0.450736,0.444699 -0.676109,0.667043 -0.02777,0.02739 -0.05553,0.05479 -0.08414,0.08301 -0.463361,0.457131 -0.92682,0.914164 -1.39035,1.371129 -0.285551,0.281515 -0.571013,0.563119 -0.856359,0.844836 -0.218657,0.215864 -0.437442,0.431601 -0.656273,0.647294 -0.08961,0.08836 -0.179171,0.17677 -0.268688,0.265223 -0.122314,0.120847 -0.244783,0.241541 -0.36729,0.362198 -0.03527,0.03492 -0.07054,0.06984 -0.106881,0.105826 -0.157998,0.155321 -0.317129,0.303936 -0.488947,0.444411 -0.04956,0.04284 -0.09912,0.08569 -0.150184,0.129831 0,0.0325 0,0.06499 0,0.09848 -0.03299,0 -0.06598,0 -0.09997,0 -0.191109,0.169404 -0.191109,0.169404 -0.299901,0.39391 -0.04948,0.01625 -0.09897,0.0325 -0.149951,0.04924 0,0.0325 0,0.06499 0,0.09848 -0.03299,0 -0.06598,0 -0.09997,0 0,0.0325 0,0.06499 0,0.09848 -0.2792,-0.234579 -0.543399,-0.47958 -0.801568,-0.736358 -0.03792,-0.03751 -0.07585,-0.07502 -0.114922,-0.113667 -0.0816,-0.08073 -0.163139,-0.161519 -0.244629,-0.242357 -0.128838,-0.127779 -0.257857,-0.255379 -0.386928,-0.382931 -0.366681,-0.362417 -0.733073,-0.725117 -1.099253,-1.088025 -0.224519,-0.222488 -0.449278,-0.444739 -0.674188,-0.666842 -0.08567,-0.0847 -0.171247,-0.169495 -0.256727,-0.254383 -0.118936,-0.118104 -0.238171,-0.235907 -0.357481,-0.353645 -0.03547,-0.03537 -0.07094,-0.07074 -0.10748,-0.107186 -0.04855,-0.04773 -0.04855,-0.04773 -0.09807,-0.09642 -0.02814,-0.02787 -0.05628,-0.05575 -0.08527,-0.08447 -0.06926,-0.06951 -0.06926,-0.06951 -0.172039,-0.05902 -0.01237,-0.02843 -0.02474,-0.05687 -0.03749,-0.08617 -0.07163,-0.127006 -0.151663,-0.212279 -0.262414,-0.307742 -0.03299,0 -0.06598,0 -0.09997,0 -0.01276,-0.0292 -0.02552,-0.05839 -0.03866,-0.08848 -0.06721,-0.11893 -0.13589,-0.182934 -0.242498,-0.268505 -0.03157,-0.02564 -0.06314,-0.05129 -0.09567,-0.07771 -0.0241,-0.01904 -0.04819,-0.03808 -0.07302,-0.0577 -0.202735,0.07958 -0.338366,0.22165 -0.488755,0.371816 -0.02831,0.02787 -0.05661,0.05574 -0.08577,0.08445 -0.09327,0.09195 -0.186184,0.184244 -0.279097,0.276545 -0.06469,0.06391 -0.129402,0.127797 -0.194135,0.191664 -0.170152,0.167992 -0.340002,0.336278 -0.50979,0.504627 -0.173376,0.1718 -0.347036,0.343322 -0.520673,0.514867 -0.340532,0.336513 -0.680744,0.673336 -1.020759,1.010357 0.07451,0.153925 0.151502,0.261061 0.27491,0.3816 0.04562,0.04532 0.04562,0.04532 0.09216,0.09155 0.07753,0.07903 0.07753,0.07903 0.182753,0.06847 0.01308,0.02951 0.02616,0.05903 0.03964,0.08944 0.06394,0.113949 0.123437,0.17136 0.225903,0.252156 0.211461,0.172157 0.399749,0.355019 0.574811,0.563168 0.102861,0.119698 0.208229,0.22338 0.330244,0.323942 0.2986,0.254543 0.573878,0.532541 0.852473,0.807865 0.0621,0.06118 0.124204,0.122359 0.186321,0.183522 0.16759,0.165079 0.335026,0.330308 0.502434,0.495566 0.175354,0.17305 0.35085,0.345959 0.526331,0.518884 0.331826,0.327034 0.663524,0.654193 0.995176,0.981398 0.377772,0.372693 0.755687,0.745246 1.133613,1.117788 0.777003,0.765938 1.553827,1.532052 2.330533,2.298282 0.270665,-0.225288 0.270665,-0.225288 0.527878,-0.465183 0.03019,-0.02974 0.06038,-0.05949 0.09148,-0.09013 0.0313,-0.03109 0.06261,-0.06218 0.09486,-0.09421 0.03331,-0.03288 0.06661,-0.06576 0.100924,-0.09963 0.105365,-0.104068 0.210554,-0.208306 0.315736,-0.312552 0.07093,-0.07012 0.141869,-0.140226 0.212821,-0.210322 0.130278,-0.128737 0.26049,-0.257538 0.390619,-0.386421 0.0282,-0.02789 0.0564,-0.05578 0.08545,-0.08451 0.07314,-0.07246 0.146032,-0.14518 0.218895,-0.217919 0.110629,-0.107145 0.110629,-0.107145 0.232464,-0.199468 0.105918,-0.08653 0.182173,-0.164344 0.268662,-0.267735 0.140648,-0.167121 0.297559,-0.302819 0.465277,-0.442957 0.08452,-0.07495 0.154507,-0.149697 0.225121,-0.237154 0.09338,-0.11135 0.171818,-0.188647 0.284282,-0.276968 0.04433,-0.03656 0.08866,-0.07312 0.134331,-0.110787 0,-0.0325 0,-0.06499 0,-0.09848 0.03299,0 0.06598,0 0.09997,0 0,-0.0325 0,-0.06499 0,-0.09848 0.02945,-0.01302 0.05891,-0.02603 0.08925,-0.03944 0.114906,-0.06129 0.190039,-0.124972 0.282122,-0.215804 0.03315,-0.03246 0.0663,-0.06492 0.100458,-0.09837 0.03601,-0.03575 0.07201,-0.07151 0.109105,-0.108348 0.03857,-0.03791 0.07714,-0.07583 0.116883,-0.114886 0.129586,-0.127493 0.258811,-0.255336 0.388042,-0.383178 0.09267,-0.09132 0.185371,-0.182621 0.278087,-0.2739 0.199835,-0.196805 0.399486,-0.39379 0.599013,-0.590898 0.288755,-0.285253 0.577786,-0.570233 0.866885,-0.855148 0.469394,-0.462614 0.938563,-0.925448 1.407593,-1.38842 0.455008,-0.44913 0.910119,-0.898157 1.365372,-1.347045 0.02802,-0.02763 0.05605,-0.05526 0.08492,-0.08374 0.140624,-0.138658 0.281251,-0.277313 0.421879,-0.415968 0.969834,-0.956231 1.939448,-1.91268 2.908835,-2.869351 0.04089,-0.04036 0.08179,-0.08071 0.123918,-0.122292 0.0753,-0.07431 0.150592,-0.148621 0.225886,-0.222934 0.06462,-0.06377 0.129248,-0.127538 0.19389,-0.191289 0.05358,-0.05289 0.107099,-0.105834 0.160539,-0.158858 0.145123,-0.143806 0.296236,-0.273437 0.456205,-0.400782 0.02236,-0.02164 0.04472,-0.04329 0.06775,-0.06559 0,-0.0325 0,-0.06499 0,-0.09848 0.03299,0 0.06598,0 0.09997,0 0.08123,-0.07181 0.08123,-0.07181 0.149951,-0.147717 -0.08082,-0.198891 -0.22373,-0.333094 -0.37506,-0.481472 -0.02805,-0.02788 -0.0561,-0.05577 -0.085,-0.0845 -0.0926,-0.0919 -0.185562,-0.183435 -0.278566,-0.274939 -0.06451,-0.06374 -0.129001,-0.127484 -0.193485,-0.191242 -0.135086,-0.13344 -0.270364,-0.266688 -0.405769,-0.399815 -0.173778,-0.170903 -0.34698,-0.34236 -0.520033,-0.513976 -0.132964,-0.131706 -0.266271,-0.263072 -0.399681,-0.39434 -0.06403,-0.0631 -0.127941,-0.126318 -0.191732,-0.189653 -0.08902,-0.0883 -0.178508,-0.176126 -0.26813,-0.263839 -0.03962,-0.03959 -0.03962,-0.03959 -0.08004,-0.07999 -0.147055,-0.150722 -0.147055,-0.150722 -0.351471,-0.179048 z"
     fill="#4ab45a"
     id="path1871"
     style="stroke-width:0.0496098" />
  <path
     d="m 23.046411,31.951574 c 0.01649,0.04875 0.03299,0.09749 0.04998,0.147717 -0.03711,0.03453 -0.07423,0.06906 -0.112463,0.104632 -0.142272,0.135956 -0.142272,0.135956 -0.234299,0.301587 -0.103091,0.135407 -0.103091,0.135407 -0.265537,0.178491 -0.06804,0.003 -0.06804,0.003 -0.137455,0.0062 0.220349,-0.260479 0.453631,-0.501649 0.69977,-0.738582 z"
     fill="#56b767"
     id="path1873"
     style="stroke-width:0.0496098" />
  <path
     d="m 5.0023334,18.607868 c 0.016495,0 0.032989,0 0.049984,0 0,0.227483 0,0.454966 0,0.689342 0.032989,0 0.065978,0 0.099967,0 0,0.129991 0,0.259981 0,0.39391 -0.032989,0 -0.065978,0 -0.099967,0 -0.096104,-0.110119 -0.1486641,-0.197518 -0.1525623,-0.344984 0.010227,-0.112673 0.025441,-0.223371 0.043223,-0.335126 0.00544,-0.03881 0.010889,-0.07763 0.016498,-0.117615 0.013484,-0.09529 0.028062,-0.190427 0.042857,-0.285527 z"
     fill="#55b866"
     id="path1875"
     style="stroke-width:0.0496098" />
  <path
     d="m 4.6524482,19.838837 c 0.032989,0.04875 0.065978,0.09749 0.099967,0.147716 -0.2874057,0.246194 -0.2874057,0.246194 -0.3998688,0.246194 -0.016495,0.06499 -0.032989,0.12999 -0.049984,0.196955 -0.065978,-0.01625 -0.1319567,-0.0325 -0.1999343,-0.04924 0.1832731,-0.180541 0.3665463,-0.361083 0.5498201,-0.541625 z"
     fill="#51b763"
     id="path1877"
     style="stroke-width:0.0496098" />
  <path
     d="m 45.888914,11.566723 c 0.240438,0.125394 0.416085,0.245716 0.599803,0.443149 -0.01649,0.04875 -0.03299,0.09749 -0.04998,0.147717 -0.234298,-0.177914 -0.234298,-0.177914 -0.299902,-0.246194 0,-0.04875 0,-0.09749 0,-0.147717 -0.115462,0 -0.230924,0 -0.349885,0 0.03299,-0.06499 0.06598,-0.12999 0.09997,-0.196955 z"
     fill="#53b763"
     id="path1879"
     style="stroke-width:0.0496098" />
  <path
     d="m 23.696198,31.31147 c 0.01649,0.06499 0.03299,0.129991 0.04998,0.196955 -0.06598,0.01625 -0.131956,0.0325 -0.199934,0.04924 0.01649,0.06499 0.03299,0.12999 0.04998,0.196955 -0.131957,0.0325 -0.263914,0.06499 -0.399869,0.09848 0.160327,-0.18742 0.320268,-0.371538 0.499836,-0.541627 z"
     fill="#59b868"
     id="path1881"
     style="stroke-width:0.0496098" />
  <path
     d="m 1.1535965,26.239877 c 0.046391,0.01625 0.092782,0.0325 0.1405789,0.04924 0.1553387,0.05661 0.1553387,0.05661 0.3092735,0.04924 0.049984,0.04924 0.049984,0.04924 0.053108,0.175414 -0.00103,0.03961 -0.00206,0.07921 -0.00312,0.120019 -0.1991252,-0.106486 -0.3443788,-0.232018 -0.499836,-0.39391 z"
     fill="#52b562"
     id="path1883"
     style="stroke-width:0.0496098" />
  <path
     d="m 24.495935,30.52365 c 0.01649,0.06499 0.03299,0.12999 0.04998,0.196955 -0.04484,0.03047 -0.04484,0.03047 -0.0906,0.06155 -0.10876,0.08571 -0.18059,0.170708 -0.25929,0.283122 -0.06598,-0.01625 -0.131957,-0.0325 -0.199935,-0.04924 0.04759,-0.04953 0.09556,-0.0987 0.143703,-0.147717 0.04001,-0.04113 0.04001,-0.04113 0.08083,-0.08309 0.07538,-0.06463 0.07538,-0.06463 0.175345,-0.06463 0.03299,-0.06499 0.06598,-0.12999 0.09997,-0.196955 z"
     fill="#5dba6b"
     id="path1885"
     style="stroke-width:0.0496098" />
  <path
     d="m 4.2525794,11.468246 c 0.016495,0.0325 0.032989,0.06499 0.049984,0.09848 -0.1731931,0.146239 -0.1731931,0.146239 -0.3498851,0.295433 -0.065978,-0.0325 -0.1319567,-0.065 -0.1999344,-0.09848 0.1649458,-0.09749 0.3298917,-0.194985 0.4998355,-0.295433 z"
     fill="#52b663"
     id="path1887"
     style="stroke-width:0.0496098" />
  <path
     d="m 45.13916,29.243442 c 0.03299,0 0.06598,0 0.09997,0 -0.06664,0.196955 -0.133289,0.39391 -0.199934,0.590865 -0.01649,-0.0325 -0.03299,-0.06499 -0.04998,-0.09848 -0.03299,0 -0.06598,0 -0.09997,0 0.01649,-0.04875 0.03299,-0.09749 0.04998,-0.147717 0.01649,0 0.03299,0 0.04998,0 0.01546,-0.04773 0.03093,-0.09546 0.04686,-0.144639 0.05311,-0.150793 0.05311,-0.150793 0.103094,-0.200032 z"
     fill="#51b765"
     id="path1889"
     style="stroke-width:0.0496098" />
  <path
     d="m 3.2529075,21.020567 c 0.032989,0.04875 0.065978,0.09749 0.099967,0.147717 -0.031958,0.01422 -0.063916,0.02844 -0.096843,0.04308 -0.1106917,0.04694 -0.1106917,0.04694 -0.1530748,0.153871 -0.1156651,0.03598 -0.2323381,0.069 -0.3498851,0.09848 0.1584244,-0.160523 0.319864,-0.306382 0.4998359,-0.443149 z"
     fill="#55b564"
     id="path1891"
     style="stroke-width:0.0496098" />
  <path
     d="m 24.845821,23.827177 c 0.123709,0.04875 0.123709,0.04875 0.249917,0.09848 -0.09897,0.113741 -0.197935,0.227483 -0.299901,0.344671 -0.06275,-0.185445 -0.01853,-0.264505 0.04998,-0.443149 z"
     fill="#53b764"
     id="path1893"
     style="stroke-width:0.0496098" />
  <path
     d="m 1.6534325,26.633787 c 0.1484513,0.02437 0.1484513,0.02437 0.2999016,0.04924 0,0.04875 0,0.09749 0,0.147716 0.049484,0.01625 0.098967,0.0325 0.1499507,0.04924 -0.016495,0.04875 -0.032989,0.09749 -0.049984,0.147716 -0.066792,-0.05625 -0.1334039,-0.112708 -0.1999343,-0.169258 -0.037113,-0.03142 -0.074226,-0.06284 -0.1124631,-0.09521 -0.028866,-0.02647 -0.057731,-0.05294 -0.087471,-0.0802 0,-0.01625 0,-0.0325 1e-7,-0.04924 z"
     fill="#53b666"
     id="path1895"
     style="stroke-width:0.0496098" />
  <path
     d="m 4.802399,29.243442 c 0.1499508,0.09848 0.1499508,0.09848 0.1864622,0.205033 0.00754,0.03999 0.015077,0.07998 0.022844,0.121174 0.00793,0.04024 0.01585,0.08048 0.024015,0.121943 0.00822,0.04627 0.00822,0.04627 0.016596,0.09348 -0.049484,0.02437 -0.049484,0.02437 -0.099967,0.04924 -0.025409,-0.06139 -0.050299,-0.122978 -0.074975,-0.18465 -0.013917,-0.03428 -0.027835,-0.06855 -0.042174,-0.103863 -0.032801,-0.105402 -0.032801,-0.105402 -0.032801,-0.302357 z"
     fill="#51b664"
     id="path1897"
     style="stroke-width:0.0496098" />
  <path
     d="m 14.149331,45.73843 c 0,0.0325 0,0.065 0,0.09848 -0.148451,0.0325 -0.296902,0.065 -0.449852,0.09848 -0.0165,-0.0325 -0.03299,-0.065 -0.04998,-0.09848 0.180927,-0.06481 0.304684,-0.09848 0.499836,-0.09848 z"
     fill="#55b762"
     id="path1899"
     style="stroke-width:0.0496098" />
  <path
     d="m 16.948412,28.012473 c 0.09897,0.08124 0.197935,0.162488 0.299902,0.246194 -0.164434,0.05399 -0.235575,0.03937 -0.399869,0 0.03299,-0.04875 0.06598,-0.09749 0.09997,-0.147717 0,-0.0325 0,-0.06499 0,-0.09848 z"
     fill="#54b766"
     id="path1901"
     style="stroke-width:0.0496098" />
  <path
     d="m 24.745853,24.319565 c -0.173193,0.146239 -0.173193,0.146239 -0.349885,0.295433 0.0165,-0.09749 0.03299,-0.194986 0.04998,-0.295433 0.149951,-0.04924 0.149951,-0.04924 0.299901,0 z"
     fill="#56b667"
     id="path1903"
     style="stroke-width:0.0496098" />
  <path
     d="m 9.6508077,38.352614 c 0,0.0325 0,0.065 0,0.09848 -0.2969025,-0.04875 -0.2969025,-0.04875 -0.5998031,-0.09848 0,-0.01625 0,-0.0325 0,-0.04924 0.071744,-0.01096 0.1436256,-0.02106 0.2155542,-0.03077 0.060018,-0.0086 0.060018,-0.0086 0.1212493,-0.01731 0.1130488,-0.0012 0.1130488,-0.0012 0.2629996,0.09732 z"
     fill="#56b967"
     id="path1905"
     style="stroke-width:0.0496098" />
  <path
     d="m 0.85369492,22.940879 c 0,0.04875 0,0.09749 0,0.147717 -0.0309274,0.01219 -0.0618547,0.02437 -0.0937192,0.03693 -0.12374373,0.07171 -0.15376203,0.129406 -0.20618233,0.258503 -0.0329892,0 -0.0659783,0 -0.0999672,0 0.0791269,-0.210459 0.22521029,-0.308496 0.39986873,-0.443149 z"
     fill="#58b768"
     id="path1907"
     style="stroke-width:0.0496098" />
  <path
     d="m 33.542966,21.660671 c 0.04998,0.09848 0.04998,0.09848 0.02187,0.224652 -0.07185,0.12002 -0.07185,0.12002 -0.22805,0.160026 -0.07113,0.0046 -0.07113,0.0046 -0.143703,0.0092 0.04892,-0.05644 0.09786,-0.112855 0.146827,-0.169258 0.02725,-0.03142 0.05451,-0.06284 0.08259,-0.09521 0.03889,-0.04426 0.07845,-0.08805 0.120468,-0.129445 z"
     fill="#57b668"
     id="path1909"
     style="stroke-width:0.0496098" />
  <path
     d="m 48.787963,22.694685 c 0.131956,0.09749 0.263913,0.194986 0.399868,0.295433 -0.04948,0.01625 -0.09897,0.0325 -0.14995,0.04924 -0.134331,-0.08617 -0.134331,-0.08617 -0.249918,-0.196955 0,-0.04875 0,-0.09749 0,-0.147717 z"
     fill="#54b666"
     id="path1911"
     style="stroke-width:0.0496098" />
  <path
     d="m 38.491342,5.3626379 c 0.01649,0 0.03299,0 0.04998,0 0.01649,0.1462391 0.03299,0.2924783 0.04998,0.4431489 -0.04948,0.024373 -0.04948,0.024373 -0.09997,0.049239 -0.05623,-0.3262069 -0.05623,-0.3262069 0,-0.4923877 z"
     fill="#53b964"
     id="path1913"
     style="stroke-width:0.0496098" />
  <path
     d="m 18.497904,4.8210114 c 0.222677,0.048746 0.222677,0.048746 0.449852,0.098478 -0.173605,0.057006 -0.317929,0.05262 -0.499836,0.049239 0.0165,-0.048746 0.03299,-0.097493 0.04998,-0.1477163 z"
     fill="#54b665"
     id="path1915"
     style="stroke-width:0.0496098" />
  <path
     d="m 22.496592,1.9159239 c 0.03299,0.064995 0.06598,0.1299904 0.09997,0.1969551 -0.118711,0.076936 -0.118711,0.076936 -0.249918,0.1477163 -0.03299,-0.016249 -0.06598,-0.032498 -0.09997,-0.049239 0.08247,-0.097493 0.164945,-0.1949856 0.249918,-0.2954324 z"
     fill="#56b865"
     id="path1917"
     style="stroke-width:0.0496098" />
  <path
     d="m 7.8014147,38.057182 c 0.1649459,0 0.3298917,0 0.499836,0 -0.016495,0.04875 -0.032989,0.09749 -0.049984,0.147716 -0.3075163,-0.02885 -0.3075163,-0.02885 -0.3998688,-0.04924 -0.016495,-0.0325 -0.032989,-0.06499 -0.049983,-0.09848 z"
     fill="#53b764"
     id="path1919"
     style="stroke-width:0.0496098" />
  <path
     d="m 3.2529075,35.102856 c 0.049484,0.065 0.098967,0.12999 0.1499508,0.196955 -0.06275,0.12363 -0.1249907,0.141377 -0.249918,0.196955 0.032989,-0.129991 0.065978,-0.259981 0.099967,-0.39391 z"
     fill="#51b563"
     id="path1921"
     style="stroke-width:0.0496098" />
  <path
     d="m 44.989209,30.622128 c 0.09997,0.196955 0.09997,0.196955 0.09997,0.295432 -0.03299,0 -0.06598,0 -0.09997,0 0.0165,0.04875 0.03299,0.09749 0.04998,0.147716 -0.04948,0 -0.09897,0 -0.149951,0 0.03299,-0.146239 0.06598,-0.292478 0.09997,-0.443148 z"
     fill="#52b761"
     id="path1923"
     style="stroke-width:0.0496098" />
  <path
     d="m 25.845492,29.243442 c 0.0165,0.0325 0.03299,0.06499 0.04998,0.09848 0.03299,0.01625 0.06598,0.0325 0.09997,0.04924 -0.09372,0.05232 -0.09372,0.05232 -0.199934,0.09848 -0.03299,-0.01625 -0.06598,-0.0325 -0.09997,-0.04924 -0.0165,0.0325 -0.03299,0.06499 -0.04998,0.09848 0,-0.04875 0,-0.09749 0,-0.147717 0.03299,0 0.06598,0 0.09997,0 0,-0.0325 0,-0.06499 0,-0.09848 0.03299,-0.01625 0.06598,-0.0325 0.09997,-0.04924 z"
     fill="#53b763"
     id="path1925"
     style="stroke-width:0.0496098" />
  <path
     d="m 33.792884,21.414477 c 0.04948,0.065 0.09897,0.129991 0.149951,0.196956 -0.115462,0.01625 -0.230924,0.0325 -0.349885,0.04924 0.06598,-0.08124 0.131956,-0.162488 0.199934,-0.246194 z"
     fill="#55b865"
     id="path1927"
     style="stroke-width:0.0496098" />
</svg>
